<svg width="1400" height="623" viewBox="0 0 1400 623" fill="none" xmlns="http://www.w3.org/2000/svg">
<path d="M-292.334 205.512C-173.838 195.49 -90.208 163.614 -35.4019 136.018C20.0195 108.111 59.9344 77.4973 132.871 61.0382C213.316 42.7504 265.878 50.9434 286.668 55.5519C315.491 61.9526 313.7 66.3051 360.853 81.1548C451.43 109.684 468.637 96.992 509.222 115.902C576.513 147.247 556.447 194.813 626.832 247.574C677.802 285.795 762.191 316.208 838.529 295.122C910.416 275.261 918.504 225.391 994.136 218.313C1025.2 215.405 1051.04 221.861 1102.7 234.772C1168.9 251.231 1213.36 271.531 1231.16 278.663C1283.91 299.822 1369.04 313.135 1508 271.348" stroke="#18044E" stroke-width="2" stroke-miterlimit="10"/>
<path d="M-293.131 221.643C-178.507 212.993 -92.8143 184.135 -33.0323 155.533C15.5315 131.978 52.5695 106.156 103.612 87.7035C114.776 83.6802 126.537 79.7849 139.203 76.4199C219.014 55.2427 271.378 58.7356 293.235 60.8753C322.547 63.7282 322.547 66.9834 368.759 81.4125C401.328 91.5622 424.524 97.3595 442.491 101.163C473.033 107.619 488.323 108.058 512.424 120.475C521.417 125.07 529.856 130.698 537.574 137.245C573.273 167.511 571.753 205.879 630.974 246.551C682.524 281.956 766.352 308.73 841.387 287.79C847.332 286.128 853.19 284.162 858.938 281.902C916.947 259.06 929.975 218.882 996.451 212.573C1003.46 211.898 1010.5 211.696 1017.53 211.969C1041.16 212.81 1065.59 218.772 1104.27 228.428C1168.36 244.521 1212.13 264.437 1231.76 272.319C1246.14 278.038 1260.97 282.528 1276.09 285.742C1328.42 297.007 1402.39 298.178 1506.44 269.429" stroke="#18044E" stroke-width="2" stroke-miterlimit="10"/>
<path d="M-293.926 239.198C-183.192 231.883 -95.3462 206.28 -30.6608 176.324C20.7075 152.55 59.4644 125.393 109.566 106.008C121.001 101.564 132.853 97.0651 145.573 93.2064C224.751 69.1214 276.843 66.2136 299.859 67.6035C329.515 69.4323 331.487 69.0848 376.685 83.075C408.331 92.8955 431.437 99.534 449.06 104.197C478.752 112.006 493.028 113.579 515.573 126.472C524.164 131.437 532.238 137.264 539.674 143.864C574.161 173.929 575.862 209.992 635.155 247.007C687.284 279.577 770.551 302.711 844.284 281.918C850.526 280.089 856.298 278.261 861.708 276.066C921.544 252.804 934.789 214.491 998.823 208.401C1005.77 207.709 1012.76 207.483 1019.74 207.725C1043.77 208.438 1068.16 214.235 1105.9 223.8C1167.89 239.454 1210.94 259.04 1232.41 267.489C1246.68 273.157 1261.37 277.658 1276.35 280.949C1328.2 292.47 1401.83 294.902 1504.85 269.007" stroke="#18044E" stroke-width="2" stroke-miterlimit="10"/>
<path d="M-294.705 257.941C-187.861 252.035 -97.9168 229.449 -28.2737 198.396C25.8268 174.257 66.3569 145.856 115.482 125.52C127.206 120.655 139.166 115.571 151.904 111.2C230.45 84.244 282.18 78.5931 306.444 75.5207C336.461 71.7351 340.388 72.3752 384.591 85.9265C415.35 95.3813 438.366 102.879 455.736 108.402C484.559 117.546 497.858 120.289 518.847 133.639C526.97 138.983 534.632 145.009 541.754 151.653C575.028 181.498 580.058 215.239 639.279 248.578C692.059 278.314 774.694 297.827 847.123 277.162C853.311 275.333 859.047 273.504 864.421 271.365C926.048 247.591 939.564 211.216 1001.12 205.163C1008.02 204.454 1014.96 204.204 1021.89 204.413C1046.32 204.98 1070.74 210.649 1107.49 220.031C1167.35 235.228 1209.7 254.467 1233.01 263.629C1247.19 269.211 1261.76 273.716 1276.6 277.107C1327.98 288.884 1401.26 292.597 1503.24 269.536" stroke="#18044E" stroke-width="2" stroke-miterlimit="10"/>
<path d="M-295.5 276.723C-192.528 272.187 -100.521 252.656 -25.9022 220.488C30.9486 195.964 73.2338 166.301 121.418 145.051C133.414 139.765 145.464 134.078 158.257 129.213C236.169 99.4409 287.428 89.3095 313.049 83.494C343.32 76.6178 349.237 75.7216 392.517 88.834C422.462 97.9779 445.279 106.281 462.359 112.608C490.314 123.069 502.618 127.019 522.069 140.808C529.709 146.517 536.963 152.737 543.781 159.425C575.862 189.015 584.221 220.451 643.388 250.224C696.819 277.107 778.802 293.017 849.947 272.498C856.063 270.67 861.762 268.841 867.118 266.738C930.555 242.47 944.306 208.217 1003.4 202.09C1010.25 201.391 1017.14 201.116 1024.03 201.267C1048.82 201.706 1073.17 207.229 1109.07 216.428C1166.82 231.204 1208.48 250.114 1233.61 259.935C1247.68 265.462 1262.13 269.978 1276.83 273.449C1327.77 285.501 1400.7 290.457 1501.65 270.267" stroke="#18044E" stroke-width="2" stroke-miterlimit="10"/>
<path d="M-296.26 288.83C-197.16 285.667 -103.072 269.208 -23.4956 235.924C36.0874 210.998 80.1458 180.018 127.389 157.926C139.638 152.202 151.815 145.984 164.644 140.571C241.886 107.982 292.73 93.4619 319.636 84.7752C350.178 74.9363 358.193 72.3578 400.424 85.0495C423.746 92.0837 446.638 100.498 468.982 110.25C496.122 122.009 507.395 127.203 525.254 141.339C533.052 147.539 539.24 154.141 545.935 160.56C576.821 189.82 588.528 219.081 647.586 245.196C701.723 269.208 783.018 281.534 852.86 261.161C858.922 259.332 864.585 257.503 869.904 255.437C935.169 230.73 949.155 198.287 1005.79 192.344C1012.59 191.643 1019.42 191.349 1026.25 191.466C1051.44 191.814 1075.76 197.135 1110.68 206.096C1166.32 220.397 1207.28 239.014 1234.22 249.493C1248.21 254.962 1262.54 259.483 1277.12 263.026C1327.59 275.352 1400.16 281.588 1500.08 264.233" stroke="#18044E" stroke-width="2" stroke-miterlimit="10"/>
<path d="M-297.094 297.464C-201.884 295.635 -105.715 282.23 -21.1631 247.868C41.152 222.539 86.9474 190.206 133.286 167.401C145.807 161.22 158.074 154.454 170.957 148.528C247.62 113.178 298.066 94.2867 326.238 82.6923C356.998 69.9822 367.094 65.6298 408.348 77.8826C431.463 84.7491 453.957 93.5959 475.584 104.327C501.839 117.348 512.152 123.822 528.455 138.452C535.692 144.907 541.392 151.784 548.032 158.276C577.742 187.353 592.814 214.09 651.728 236.749C706.606 257.853 787.196 266.631 855.735 246.386C861.724 244.557 867.334 242.729 872.653 240.699C939.745 215.608 954.021 185.031 1008.12 179.307C1014.87 178.587 1021.66 178.269 1028.44 178.356C1053.99 178.575 1078.31 183.732 1112.27 192.584C1165.79 206.464 1206.05 224.734 1234.84 235.907C1248.73 241.307 1262.93 245.832 1277.38 249.459C1327.39 262.059 1399.62 269.575 1498.5 255.036" stroke="#18044E" stroke-width="2" stroke-miterlimit="10"/>
<path d="M-297.871 306.222C-206.552 305.801 -108.338 295.377 -18.774 259.935C46.2551 234.186 93.7695 200.463 139.203 176.835C151.995 170.16 164.39 162.845 177.309 156.445C253.357 118.369 303.441 95.1804 332.825 80.5502C364.001 65.0421 375.997 58.8608 416.256 70.6748C439.203 77.4694 461.326 86.8425 482.207 98.6185C507.539 112.865 516.911 120.692 531.676 135.688C538.298 142.418 543.545 149.513 550.114 156.134C578.666 184.9 597.157 209.26 655.89 228.425C711.528 246.585 791.358 251.834 858.541 231.754C864.475 229.925 870.048 228.096 875.332 226.084C944.251 200.482 958.69 171.825 1010.4 166.137C1017.1 165.417 1023.83 165.075 1030.56 165.113C1056.51 165.113 1080.79 170.197 1113.79 178.902C1165.21 192.307 1204.75 210.284 1235.38 222.098C1249.17 227.451 1263.26 231.994 1277.58 235.704C1327.12 248.505 1399 257.302 1496.84 245.652" stroke="#18044E" stroke-width="2" stroke-miterlimit="10"/>
<path d="M-298.668 315.02C-211.221 315.971 -110.945 308.564 -16.4045 272.043C51.3568 245.873 100.59 210.743 145.137 186.402C158.165 179.288 170.704 171.479 183.641 164.456C259.092 123.656 308.85 96.1696 339.428 78.5036C370.984 60.2158 384.898 52.1692 424.18 63.5442C446.953 70.2603 468.706 80.1058 488.829 92.8046C513.382 108.294 521.651 117.475 534.878 132.837C540.903 139.859 545.734 147.138 552.212 153.886C579.606 182.36 601.481 204.287 660.033 220.015C716.467 235.175 795.519 236.967 861.453 217.015C867.334 215.187 872.87 213.358 878.117 211.401C948.882 185.414 963.52 158.586 1012.79 153.008C1019.44 152.286 1026.12 151.92 1032.8 151.911C1059.13 151.746 1083.46 156.72 1115.47 165.243C1164.76 178.209 1203.61 195.875 1236.07 208.347C1249.76 213.663 1263.72 218.236 1277.9 222.044C1326.99 235.175 1398.53 245.179 1495.33 236.382" stroke="#18044E" stroke-width="2" stroke-miterlimit="10"/>
<path d="M-299.463 323.778C-215.888 326.046 -113.513 321.639 -13.9968 284.057C56.5691 257.449 107.413 220.891 151.109 195.874C164.39 188.266 177.056 179.963 190.029 172.429C264.865 128.959 314.315 97.1926 346.07 76.3994C378.078 55.4233 393.856 45.4382 432.142 56.3743C454.758 63.0672 476.146 73.4313 495.471 87.0612C519.174 103.74 526.411 114.347 538.1 130.056C543.528 137.371 547.888 144.814 554.384 151.709C580.656 179.872 605.952 199.257 664.286 211.656C721.517 223.781 799.772 222.153 864.422 202.347C870.23 200.519 875.73 198.69 880.959 196.861C953.552 170.472 968.407 145.472 1015.2 140.041C1021.81 139.281 1028.45 138.89 1035.1 138.87C1061.81 138.688 1086.05 143.388 1117.19 151.672C1164.36 164.199 1202.5 181.554 1236.81 194.685C1249.2 199.44 1262.94 204.14 1278.3 208.346C1326.92 221.732 1398.12 233.016 1493.87 227.054" stroke="#18044E" stroke-width="2" stroke-miterlimit="10"/>
<path d="M-300.26 332.281C-220.647 335.939 -116.191 334.549 -11.6635 295.925C61.5441 268.878 114.143 230.857 157.007 205.181C170.523 197.08 183.334 188.302 196.343 180.218C270.636 134.078 319.815 98.0513 352.619 74.1492C385.08 50.375 402.703 38.5611 440.012 49.0583C462.495 55.7341 483.544 66.601 502.074 81.0985C524.963 98.984 531.024 111.036 541.283 127.056C546.115 134.663 550.041 142.289 556.392 149.312C581.542 177.128 610.239 194.081 668.338 203.078C726.437 212.076 803.843 207.101 867.189 187.442C872.943 185.613 878.407 183.784 883.6 181.956C958.038 155.164 973.11 131.993 1017.49 126.69C1024.04 125.918 1030.61 125.509 1037.2 125.465C1064.34 125.117 1088.51 129.689 1118.62 137.864C1163.69 149.934 1201.11 166.996 1237.26 180.767C1249.6 185.485 1263.23 190.167 1278.41 194.465C1326.56 208.107 1397.41 220.653 1492.13 217.562" stroke="#18044E" stroke-width="2" stroke-miterlimit="10"/>
<path d="M-301.037 340.677C-225.242 345.743 -118.814 347.298 -9.27438 307.65C66.7196 280.218 120.893 240.643 162.924 214.382C176.694 205.768 189.649 196.533 202.731 187.901C276.445 139.073 325.371 98.8397 359.206 71.7189C392.191 45.3479 411.678 31.4857 447.866 41.5623C471.894 48.2556 493.716 62.0995 508.643 74.9558C530.735 94.0117 535.784 107.545 544.451 123.876C548.648 131.776 552.159 139.585 558.419 146.754C582.466 174.185 614.51 188.614 672.41 194.302C731.269 200.136 807.933 191.87 869.976 172.357C875.658 170.528 881.086 168.699 886.261 166.87C962.526 139.658 977.797 118.316 1019.68 113.159C1026.18 112.375 1032.71 111.942 1039.24 111.861C1066.73 111.33 1090.9 115.792 1120.16 123.802C1163.11 135.434 1199.77 152.185 1237.77 166.614C1250.06 171.278 1263.57 175.978 1278.55 180.33C1326.25 194.247 1396.76 208.054 1490.43 207.762" stroke="#18044E" stroke-width="2" stroke-miterlimit="10"/>
<path d="M-301.834 348.961C-229.911 355.417 -121.511 359.714 -6.90484 319.244C71.6766 291.154 127.623 250.299 168.858 223.397C182.845 214.253 195.999 204.579 209.045 195.399C282.252 143.992 330.943 99.4061 365.81 69.2129C399.337 40.1719 420.489 24.3713 455.844 33.9907C479.023 40.3548 500.735 54.9302 515.319 68.7375C536.615 88.9638 540.451 103.96 547.707 120.62C551.325 128.813 554.383 136.768 560.571 144.083C583.514 171.222 618.96 183 676.643 185.542C736.353 188.157 812.184 176.654 872.925 157.269C878.558 155.452 883.944 153.623 889.083 151.782C967.212 124.204 982.682 104.655 1022.11 99.6438C1028.55 98.8388 1035.02 98.381 1041.5 98.2722C1069.37 97.5956 1093.54 101.93 1121.86 109.757C1162.68 120.931 1198.67 137.463 1238.53 152.477C1250.76 157.122 1264.15 161.786 1278.97 166.211C1326.19 180.403 1396.36 195.472 1489 198.069" stroke="#18044E" stroke-width="2" stroke-miterlimit="10"/>
<path d="M-302.629 357.119C-234.596 364.928 -124.115 372.243 -4.53335 330.711C76.7802 302.2 134.373 259.773 174.794 232.341C188.998 222.703 202.297 212.554 215.397 202.825C288.08 148.802 336.625 99.9374 372.397 66.5622C406.504 34.8329 429.392 17.0206 463.68 26.2193C486.026 32.236 507.648 47.5612 521.852 62.356C542.388 83.7527 545.012 100.248 550.802 117.219C553.733 125.723 556.465 133.843 562.545 141.286C584.529 168.059 623.358 179.032 680.806 176.563C741.203 173.966 816.365 161.22 875.821 141.981C881.394 140.164 886.738 138.336 891.852 136.495C971.863 108.661 987.496 90.7752 1024.46 85.9107C1030.85 85.0991 1037.28 84.623 1043.71 84.4842C1071.96 83.6796 1096.19 87.8492 1123.47 95.4569C1162.1 106.283 1197.46 122.614 1239.14 138.177C1251.32 142.786 1264.6 147.449 1279.22 151.948C1326 166.414 1395.82 182.745 1487.41 188.194" stroke="#18044E" stroke-width="2" stroke-miterlimit="10"/>
<path d="M-303.498 365.181C-239.337 374.325 -126.794 384.694 -2.23609 342.084C81.8097 313.153 140.94 269.171 180.638 241.117C195.113 230.949 208.557 220.379 221.657 210.028C293.851 153.336 342.125 100.301 378.928 63.7254C413.686 29.3444 438.348 9.63015 471.677 18.3717C493.172 24.0409 514.704 40.0976 528.546 55.88C548.322 78.4105 549.679 96.4057 554.112 113.669C556.392 122.484 558.763 130.75 564.752 138.358C585.559 164.765 627.609 171.276 684.949 167.472C746.142 163.467 820.508 145.673 878.661 126.581C884.089 124.752 889.517 122.923 894.566 121.094C976.404 92.8396 992.272 76.7646 1026.78 72.0647C1033.11 71.231 1039.48 70.7305 1045.87 70.5651C1074.49 69.6141 1098.63 73.6557 1125.04 81.1171C1161.65 91.4132 1196.23 107.342 1239.74 123.655C1251.88 128.226 1265.07 132.798 1279.55 137.462C1325.85 152.092 1395.35 169.776 1485.82 178.079" stroke="#18044E" stroke-width="2" stroke-miterlimit="10"/>
<path d="M-304.203 373.154C-243.933 383.706 -129.345 397.057 0.22525 353.385C87.0755 324.033 147.69 278.405 186.592 249.858C201.211 239.141 214.926 228.169 228.026 217.306C299.841 158.2 347.807 100.63 385.443 60.9086C420.762 23.7661 447.052 2.14997 479.53 10.4892C500.175 15.811 521.653 32.5991 535.115 49.3508C554.149 73.1249 554.204 92.51 557.279 110.103C558.854 119.247 560.898 127.641 566.779 135.395C586.537 161.437 631.916 165.167 689.039 158.346C750.974 151.031 824.634 130.091 881.466 111.127C886.894 109.298 892.196 107.469 897.244 105.787C980.928 77.1116 996.977 62.7923 1029.04 58.2386C1035.37 57.4168 1041.73 56.9285 1048.11 56.7756C1074.65 55.7653 1101.18 59.1631 1126.64 66.8339C1161.12 76.691 1195 92.3088 1240.36 109.28C1252.44 113.797 1265.51 118.424 1279.75 123.105C1346.32 144.637 1414.77 159.707 1484.17 168.112" stroke="#18044E" stroke-width="2" stroke-miterlimit="10"/>
<path d="M-305 381.074C-248.602 392.998 -131.951 409.365 2.59479 364.615C92.1049 334.843 154.329 287.678 192.58 258.546C362.354 129.123 416.093 -15.4234 487.509 2.51693C507.304 7.49121 528.727 25.0109 541.79 42.7501C569.691 80.6058 552.104 109.318 568.931 132.36C610.185 188.87 795.755 125.758 900.048 90.2983C1001.74 55.7161 1005.5 44.5788 1050.23 42.7501C1128.3 39.5131 1168.89 71.2059 1280.02 108.586C1346.09 130.705 1413.88 147.221 1482.67 157.963" stroke="#18044E" stroke-width="2" stroke-miterlimit="10"/>
<path d="M-305 386.306C-247.1 399.345 -134.068 414.286 -5.43885 371.456C83.3475 341.812 142.93 294.19 183.985 263.558C347.988 141.341 399.139 8.97385 471.894 20.7878C500.319 25.3963 529.179 34.6316 548.232 48.7864C585.668 76.6204 571.754 101.51 593.466 123.766C640.999 172.522 814.084 117.786 913.383 85.2522C1010.11 53.4498 1014.02 44.4522 1061.3 46.281C1139.86 49.3167 1178.6 77.3702 1283.29 113.251C1348.61 135.625 1415.87 151.734 1484.17 161.366" stroke="#18044E" stroke-width="2" stroke-miterlimit="10"/>
<path d="M-305 391.754C-208.44 414.221 -107.646 409.637 -13.4725 378.496C74.5901 348.998 131.423 300.882 175.391 268.769C333.404 153.446 382.872 31.2838 456.297 39.2573C493.552 43.3172 528.582 44.3413 554.673 55.0397C599.437 73.3275 590.716 93.6269 618.001 115.389C670.13 156.921 832.413 110.013 926.736 80.4048C1018.35 51.3821 1022.42 44.3413 1072.39 50.0105C1151.24 58.935 1188.32 83.9161 1286.57 118.133C1351.11 140.747 1417.82 156.451 1485.6 164.986" stroke="#18044E" stroke-width="2" stroke-miterlimit="10"/>
<path d="M-305 401.449C-211.252 424.185 -113.097 420.145 -21.4881 389.781C65.8327 360.411 119.933 311.802 166.796 278.226C318.495 169.56 367.131 70.5131 440.682 61.9727C486.695 56.6326 527.388 58.8272 561.133 65.5205C612.121 75.6153 609.154 90.0078 642.555 111.24C697.849 146.389 850.778 106.668 940.071 79.8033C1026.7 53.7432 1030.74 48.3117 1083.46 57.9676C1162.57 72.4516 1198.02 94.6712 1289.86 127.242C1353.63 150.123 1419.82 165.429 1487.08 172.852" stroke="#18044E" stroke-width="2" stroke-miterlimit="10"/>
<path d="M-305 416.205C-214.071 439.198 -118.557 435.685 -29.5217 406.074C57.0753 376.813 108.425 327.711 158.202 292.69C303.477 190.479 351.606 100.887 425.085 89.6951C479.674 81.3924 527.876 68.7007 567.574 81.0084C622.199 97.9429 624.244 99.1133 667.09 112.098C718.639 151.618 869.126 108.275 953.425 84.2087C1035.03 60.9832 1039.04 57.1428 1094.56 70.9501C1173.86 90.6826 1207.7 110.507 1293.14 141.358C1356.14 164.499 1421.81 179.402 1488.55 185.706" stroke="#18044E" stroke-width="2" stroke-miterlimit="10"/>
<path d="M-305 431.31C-216.894 454.575 -124.016 451.641 -37.5192 422.861C48.354 393.747 96.9359 344.095 149.643 307.648C288.35 211.71 335.937 130.75 409.398 117.912C472.726 106.866 525.415 89.3464 574.052 97.009C636.765 106.884 642.32 103.007 691.661 113.468C745.744 148.635 887.455 110.231 966.687 89.1087C1043.26 68.7178 1047.28 66.2855 1105.56 84.427C1185.17 109.152 1217.29 126.873 1296.34 155.969C1358.57 179.371 1423.74 193.873 1489.94 199.055" stroke="#18044E" stroke-width="2" stroke-miterlimit="10"/>
<path d="M-305 446.71C-219.737 470.201 -129.52 467.816 -45.589 439.852C39.5605 410.866 85.3378 360.666 141.012 322.811C273.097 232.999 320.141 160.232 393.874 146.333C465.76 132.782 523.896 121.663 580.457 113.196C650.299 102.735 660.323 107.069 716.16 115.025C772.866 145.949 905.784 112.464 980.113 94.2132C1051.66 76.6569 1055.67 75.5231 1116.72 98.1085C1196.48 127.625 1227 143.517 1299.61 170.802C1361.09 194.457 1425.75 208.559 1491.41 212.627" stroke="#18044E" stroke-width="2" stroke-miterlimit="10"/>
<path d="M-305 462.31C-237.637 482.006 -146.679 488.644 -53.6046 457.061C30.8754 428.386 73.7758 377.418 132.418 338.191C257.754 254.359 304.309 189.511 378.258 174.972C458.885 159.135 523.009 143.645 586.916 129.6C663.453 112.757 680.099 100.998 740.714 116.799C803.517 133.166 924.113 114.97 993.448 99.535C1059.96 84.795 1064.01 84.9047 1127.79 111.989C1207.95 146.132 1236.65 160.415 1302.98 185.835C1344.21 201.636 1406.42 222.301 1492.96 226.397" stroke="#18044E" stroke-width="2" stroke-miterlimit="10"/>
<path d="M-305 478.182C-236.063 498.957 -148.796 504.205 -61.6382 474.524C22.118 445.995 62.1777 394.369 123.823 353.825C242.32 275.864 288.206 218.751 362.662 203.865C452.045 185.979 522.285 165.991 593.358 146.258C676.788 123.088 697.614 105.458 765.249 118.827C829.717 131.628 942.424 117.583 1006.8 105.111C1068.32 93.1872 1072.52 94.2845 1138.89 126.142C1219.44 164.784 1246.25 177.64 1306.25 201.122C1346.89 217.032 1408.18 237.697 1494.43 240.441" stroke="#18044E" stroke-width="2" stroke-miterlimit="10"/>
<path d="M-305 494.24C-234.434 516.186 -150.913 519.953 -69.6719 492.192C13.3606 463.809 50.5434 411.506 115.229 369.664C226.831 297.464 272.102 248.013 347.047 232.963C445.278 213.23 521.652 188.596 599.799 163.122C690.268 133.642 715.147 110.544 789.784 121.06C856.007 130.386 960.734 120.493 1020.14 110.892C1076.55 101.748 1081.02 103.851 1149.96 140.5C1231.02 183.567 1255.84 195.125 1309.53 216.613C1349.59 232.652 1409.91 253.39 1495.9 254.67" stroke="#18044E" stroke-width="2" stroke-miterlimit="10"/>
<path d="M-305 510.535C-232.932 533.523 -153.012 535.918 -77.7055 510.078C4.60321 481.823 38.8729 428.788 106.634 385.721C211.271 319.19 254.696 268.478 331.45 262.278C440.266 253.482 521.073 211.438 606.241 180.202C703.82 144.432 736.516 97.9074 814.319 123.51C879.312 144.962 978.973 123.51 1033.49 116.89C1084.84 110.581 1089.58 113.562 1161.05 155.057C1242.67 202.477 1265.4 212.901 1312.8 232.323C1352.27 248.507 1411.67 269.264 1497.36 269.136" stroke="#18044E" stroke-width="2" stroke-miterlimit="10"/>
<path d="M-305 527.359C-231.358 551.462 -155.129 552.376 -85.7211 528.602C-4.15419 500.475 27.1662 446.636 98.0396 402.416C195.746 341.463 238.574 299.694 315.835 292.232C433.445 280.839 520.566 234.937 612.7 197.922C717.463 155.86 752.692 106.282 838.873 126.6C907.231 142.73 997.338 127.295 1046.82 123.528C1093.13 119.998 1098.28 123.838 1172.12 170.271C1254.4 221.989 1274.95 231.371 1316.1 248.671C1354.94 265.02 1413.42 285.759 1498.84 284.222" stroke="#18044E" stroke-width="2" stroke-miterlimit="10"/>
<path d="M-305 545.245C-229.802 570.464 -157.264 569.97 -93.7548 547.988C-12.9116 519.989 15.4052 465.272 89.4451 419.973C180.023 364.543 222.435 331.771 300.238 323.048C426.678 308.875 520.096 259.315 619.141 216.522C731.178 168.114 769.32 116.524 863.408 130.569C934.951 141.249 1015.61 131.849 1060.18 131.026C1101.4 130.258 1107.02 134.94 1183.22 186.347C1266.18 242.326 1284.54 250.775 1319.37 265.899C1357.6 282.467 1415.27 303.133 1500.31 300.188" stroke="#18044E" stroke-width="2" stroke-miterlimit="10"/>
<path d="M-305 563.441C-228.228 589.775 -159.381 587.837 -101.788 567.793C-21.669 539.904 3.58995 484.2 80.8505 437.95C164.353 387.951 206.241 364.232 284.623 354.283C419.82 337.129 519.662 284.095 625.583 235.522C745.002 180.787 786.364 127.935 887.943 134.939C962.49 140.078 1033.91 136.768 1073.51 138.944C1109.63 140.901 1115.82 146.388 1194.29 202.842C1278.05 263.064 1293.95 270.745 1322.65 283.546C1360.23 300.389 1416.92 320.944 1501.78 316.574" stroke="#18044E" stroke-width="2" stroke-miterlimit="10"/>
<path d="M-305 583.245C-226.654 610.677 -161.552 607.202 -109.822 589.188C-30.4807 561.245 -8.31575 504.571 72.256 457.516C148.648 412.894 190.029 398.264 269.026 387.108C412.908 366.791 519.264 310.482 631.952 256.113C758.609 195.05 804.187 149.239 912.406 140.9C989.522 134.975 1052.11 143.277 1086.79 148.453C1117.86 153.098 1124.61 159.425 1205.31 220.909C1289.88 285.392 1303.34 292.231 1325.85 302.747C1362.72 319.992 1418.6 340.31 1503.17 334.531" stroke="#18044E" stroke-width="2" stroke-miterlimit="10"/>
<path d="M-305 602.852C-225.098 631.399 -163.669 626.498 -117.838 610.404C-39.2381 582.589 -20.33 524.562 63.6614 476.904C132.925 437.603 173.78 432.098 253.411 419.754C405.96 396.108 518.884 336.673 638.484 276.543C772.541 209.115 822.407 159.501 937.032 146.699C1016.64 137.848 1070.51 149.497 1100.2 157.782C1126.24 165.097 1133.6 172.229 1216.45 238.815C1301.93 307.504 1312.82 313.667 1329.22 321.805C1365.26 339.69 1420.43 359.496 1504.73 352.309" stroke="#18044E" stroke-width="2" stroke-miterlimit="10"/>
<path d="M-305 622.473C-223.578 652.118 -165.678 645.809 -125.871 631.617C-48.0679 603.929 -32.471 544.256 55.0668 496.288C117.201 462.236 157.514 465.93 237.814 452.397C398.94 425.24 518.522 362.787 644.925 296.951C786.383 223.178 840.682 169.686 961.567 152.477C1043.98 140.755 1088.89 155.623 1113.55 167.107C1134.6 176.91 1142.5 185.011 1227.55 256.717C1313.94 329.631 1322.18 335.172 1332.49 340.841C1367.36 360.025 1422.16 378.697 1506.19 370.102" stroke="#18044E" stroke-width="2" stroke-miterlimit="10"/>
</svg>
